HIERARCHY
ROOT hips
{
  OFFSET 0 10.6860622 2.3727825e-15
  CHANNELS 6 Xposition Yposition Zposition Yrotation Xrotation Zrotation
  JOINT leftUpperLeg
  {
    OFFSET 0.6642549969 -0.9402397400000004 0
    CHANNELS 3 Yrotation Xrotation Zrotation
    JOINT leftLowerLeg
    {
      OFFSET 0 -3.997221335632195 0
      CHANNELS 3 Yrotation Xrotation Zrotation
      JOINT leftFoot
      {
        OFFSET -0.13777839790000004 -4.6145792000000005 -0.22186036399999998
        CHANNELS 3 Yrotation Xrotation Zrotation
        JOINT leftToes
        {
          OFFSET -0.03777410834999995 -0.9130806927000008 0.85230013
          CHANNELS 3 Yrotation Xrotation Zrotation
          End Site
          {
            OFFSET -0.03777410834999995 -0.9130806927000008 0.85230013
          }
        }
      }
    }
  }
  JOINT rightUpperLeg
  {
    OFFSET -0.6642778626 -0.9402397400000004 0
    CHANNELS 3 Yrotation Xrotation Zrotation
    JOINT rightLowerLeg
    {
      OFFSET 0 -3.997221452859387 0
      CHANNELS 3 Yrotation Xrotation Zrotation
      JOINT rightFoot
      {
        OFFSET 0.1377926176 -4.6145792000000005 -0.22185782299999995
        CHANNELS 3 Yrotation Xrotation Zrotation
        JOINT rightToes
        {
          OFFSET 0.037780746850000047 -0.9130806927000008 0.85230167
          CHANNELS 3 Yrotation Xrotation Zrotation
          End Site
          {
            OFFSET 0.037780746850000047 -0.9130806927000008 0.85230167
          }
        }
      }
    }
  }
  JOINT spine
  {
    OFFSET 0 0.13988381660000015 0
    CHANNELS 3 Yrotation Xrotation Zrotation
    JOINT chest
    {
      OFFSET 0 0.6191039003973773 0
      CHANNELS 3 Yrotation Xrotation Zrotation
      JOINT upperChest
      {
        OFFSET 0 0.9855186130586943 0
        CHANNELS 3 Yrotation Xrotation Zrotation
        JOINT leftShoulder
        {
          OFFSET 0.1807663869 1.5087829790000005 0
          CHANNELS 3 Yrotation Xrotation Zrotation
          JOINT leftUpperArm
          {
            OFFSET 0.5985063006419806 0 0
            CHANNELS 3 Yrotation Xrotation Zrotation
            JOINT leftLowerArm
            {
              OFFSET 2.2993332369501065 0 0
              CHANNELS 3 Yrotation Xrotation Zrotation
              JOINT leftHand
              {
                OFFSET 2.395047042602395 0 0
                CHANNELS 3 Yrotation Xrotation Zrotation
                JOINT leftIndexProximal
                {
                  OFFSET 0.5766295810000004 0.04556643899499946 0.17265095988184
                  CHANNELS 3 Yrotation Xrotation Zrotation
                  JOINT leftIndexIntermediate
                  {
                    OFFSET 0.2957229000000008 -0.019352197700001517 -0.007932640616999987
                    CHANNELS 3 Yrotation Xrotation Zrotation
                    JOINT leftIndexDistal
                    {
                      OFFSET 0.19008243099999922 -0.012484908149998475 -0.002786250786000012
                      CHANNELS 3 Yrotation Xrotation Zrotation
                      End Site
                      {
                        OFFSET 0.19008243099999922 -0.012484908149998475 -0.002786250786000012
                      }
                    }
                  }
                }
                JOINT leftMiddleProximal
                {
                  OFFSET 0.5834975091000001 0.0524350405149987 0.02204081888183999
                  CHANNELS 3 Yrotation Xrotation Zrotation
                  JOINT leftMiddleIntermediate
                  {
                    OFFSET 0.33880573540000003 -0.019871473270000717 -0.00000971183179999946
                    CHANNELS 3 Yrotation Xrotation Zrotation
                    JOINT leftMiddleDistal
                    {
                      OFFSET 0.20676022730000088 -0.012221336379999448 0.0001471936708000235
                      CHANNELS 3 Yrotation Xrotation Zrotation
                      End Site
                      {
                        OFFSET 0.20676022730000088 -0.012221336379999448 0.0001471936708000235
                      }
                    }
                  }
                }
                JOINT leftLittleProximal
                {
                  OFFSET 0.5344154683999995 -0.012880921405001189 -0.24414037221816004
                  CHANNELS 3 Yrotation Xrotation Zrotation
                  JOINT leftLittleIntermediate
                  {
                    OFFSET 0.21758961730000093 -0.011650919939999227 0.011893592810000034
                    CHANNELS 3 Yrotation Xrotation Zrotation
                    JOINT leftLittleDistal
                    {
                      OFFSET 0.1475273964999999 -0.008152365682999818 0.006001092492999946
                      CHANNELS 3 Yrotation Xrotation Zrotation
                      End Site
                      {
                        OFFSET 0.1475273964999999 -0.008152365682999818 0.006001092492999946
                      }
                    }
                  }
                }
                JOINT leftRingProximal
                {
                  OFFSET 0.5799399463000003 0.026911854694997794 -0.12150566991816003
                  CHANNELS 3 Yrotation Xrotation Zrotation
                  JOINT leftRingIntermediate
                  {
                    OFFSET 0.26167887460000006 -0.013480186499999602 0.010996293000000053
                    CHANNELS 3 Yrotation Xrotation Zrotation
                    JOINT leftRingDistal
                    {
                      OFFSET 0.17667108799999987 -0.008990287899999228 0.0055541023999999065
                      CHANNELS 3 Yrotation Xrotation Zrotation
                      End Site
                      {
                        OFFSET 0.17667108799999987 -0.008990287899999228 0.0055541023999999065
                      }
                    }
                  }
                }
                JOINT leftThumbProximal
                {
                  OFFSET 0.11018806699999972 -0.09448718900500053 0.17047963138184
                  CHANNELS 3 Yrotation Xrotation Zrotation
                  JOINT leftThumbIntermediate
                  {
                    OFFSET 0.31062601459999983 -0.08126270900000132 0.15443142000000007
                    CHANNELS 3 Yrotation Xrotation Zrotation
                    JOINT leftThumbDistal
                    {
                      OFFSET 0.21627175790000086 -0.08833193599999878 0.018771167799999988
                      CHANNELS 3 Yrotation Xrotation Zrotation
                      End Site
                      {
                        OFFSET 0.21627175790000086 -0.08833193599999878 0.018771167799999988
                      }
                    }
                  }
                }
              }
            }
          }
        }
        JOINT neck
        {
          OFFSET 0 1.5463305265074576 0
          CHANNELS 3 Yrotation Xrotation Zrotation
          JOINT head
          {
            OFFSET 0 0.8456443600000344 0
            CHANNELS 3 Yrotation Xrotation Zrotation
            JOINT leftEye
            {
              OFFSET 0.30408573140000006 0.5104519199999995 0.1276382305
              CHANNELS 3 Yrotation Xrotation Zrotation
              End Site
              {
                OFFSET 0.30408573140000006 0.5104519199999995 0.1276382305
              }
            }
            JOINT rightEye
            {
              OFFSET -0.30409491089999996 0.5104519199999995 0.1276379445
              CHANNELS 3 Yrotation Xrotation Zrotation
              End Site
              {
                OFFSET -0.30409491089999996 0.5104519199999995 0.1276379445
              }
            }
            JOINT jaw
            {
              OFFSET -3.155239131000001e-7 -0.11984121820000082 0.60178107
              CHANNELS 3 Yrotation Xrotation Zrotation
              End Site
              {
                OFFSET -3.155239131000001e-7 -0.11984121820000082 0.60178107
              }
            }
          }
        }
        JOINT rightShoulder
        {
          OFFSET -0.1807303465 1.5087829790000005 0
          CHANNELS 3 Yrotation Xrotation Zrotation
          JOINT rightUpperArm
          {
            OFFSET -0.5985063796536958 0 0
            CHANNELS 3 Yrotation Xrotation Zrotation
            JOINT rightLowerArm
            {
              OFFSET -2.2993322059002854 0 0
              CHANNELS 3 Yrotation Xrotation Zrotation
              JOINT rightHand
              {
                OFFSET -2.395045314457259 0 0
                CHANNELS 3 Yrotation Xrotation Zrotation
                JOINT rightIndexProximal
                {
                  OFFSET -0.5764487688300002 0.0441371204405987 0.17361932004999997
                  CHANNELS 3 Yrotation Xrotation Zrotation
                  JOINT rightIndexIntermediate
                  {
                    OFFSET -0.29573011380000047 -0.01934826376999843 -0.007698921482999974
                    CHANNELS 3 Yrotation Xrotation Zrotation
                    JOINT rightIndexDistal
                    {
                      OFFSET -0.19008373999999884 -0.012503266380000655 -0.0026365778999999897
                      CHANNELS 3 Yrotation Xrotation Zrotation
                      End Site
                      {
                        OFFSET -0.19008373999999884 -0.012503266380000655 -0.0026365778999999897
                      }
                    }
                  }
                }
                JOINT rightMiddleProximal
                {
                  OFFSET -0.5834852037300005 0.05211639405060153 0.02307162440000001
                  CHANNELS 3 Yrotation Xrotation Zrotation
                  JOINT rightMiddleIntermediate
                  {
                    OFFSET -0.33880114510000003 -0.019952774050000954 0.0002455003561999819
                    CHANNELS 3 Yrotation Xrotation Zrotation
                    JOINT rightMiddleDistal
                    {
                      OFFSET -0.20675694929999955 -0.012273788999999091 0.00030209124000002766
                      CHANNELS 3 Yrotation Xrotation Zrotation
                      End Site
                      {
                        OFFSET -0.20675694929999955 -0.012273788999999091 0.00030209124000002766
                      }
                    }
                  }
                }
                JOINT rightLittleProximal
                {
                  OFFSET -0.5346811737299992 -0.011214256288399227 -0.24363941305000003
                  CHANNELS 3 Yrotation Xrotation Zrotation
                  JOINT rightLittleIntermediate
                  {
                    OFFSET -0.21757715980000092 -0.011771559690000988 0.01201554387
                    CHANNELS 3 Yrotation Xrotation Zrotation
                    JOINT rightLittleDistal
                    {
                      OFFSET -0.1475201849000004 -0.00822055339600003 0.006082065407000015
                      CHANNELS 3 Yrotation Xrotation Zrotation
                      End Site
                      {
                        OFFSET -0.1475201849000004 -0.00822055339600003 0.006082065407000015
                      }
                    }
                  }
                }
                JOINT rightRingProximal
                {
                  OFFSET -0.5800810755299999 0.027657985680600072 -0.12066365025000003
                  CHANNELS 3 Yrotation Xrotation Zrotation
                  JOINT rightRingIntermediate
                  {
                    OFFSET -0.26166445029999974 -0.013623118409999302 0.011164098990000045
                    CHANNELS 3 Yrotation Xrotation Zrotation
                    JOINT rightRingDistal
                    {
                      OFFSET -0.17666387530000027 -0.009072900100000503 0.005668185599999959
                      CHANNELS 3 Yrotation Xrotation Zrotation
                      End Site
                      {
                        OFFSET -0.17666387530000027 -0.009072900100000503 0.005668185599999959
                      }
                    }
                  }
                }
                JOINT rightThumbProximal
                {
                  OFFSET -0.10997596379000074 -0.09577489355940072 0.16989765924999997
                  CHANNELS 3 Yrotation Xrotation Zrotation
                  JOINT rightThumbIntermediate
                  {
                    OFFSET -0.31036620999999986 -0.08229339117999834 0.15440884469999996
                    CHANNELS 3 Yrotation Xrotation Zrotation
                    JOINT rightThumbDistal
                    {
                      OFFSET -0.21631306399999906 -0.08825326400000111 0.018656797720000014
                      CHANNELS 3 Yrotation Xrotation Zrotation
                      End Site
                      {
                        OFFSET -0.21631306399999906 -0.08825326400000111 0.018656797720000014
                      }
                    }
                  }
                }
              }
            }
          }
        }
      }
    }
  }
}
MOTION
Frames: 5
Frame Time: 0.03333333333333333
-0.08303520089667402 -6.944382969734786 -4.246796406141826 -179.99802816123028 35.66501938734907 0.0061436714123571205 70.10024041923542 -74.92598042264358 -24.858673832382078 -172.5632843096981 47.89974555546641 -134.21535789373905 -10.675134049388374 51.201300566019455 -33.6763825891663 0 0 0 -70.09542166478685 -74.91492756462765 24.855346854386827 172.5682330144555 47.903973654780366 134.22058596157322 10.690433369324726 51.18635821311528 33.687765278881535 0 0 0 -0.17918076355999107 -13.537805710808385 -0.45341893728225213 0.9186396281323321 2.2620200878070933 0.5785028325862477 0 0 0 -36.566136427913925 10.409193686690868 -35.0794656967011 -10.185459644904109 -18.375685968985646 -40.670730525180204 -32.599398960596425 -1.0007172406988378 5.34341226190053 -4.692579664988619 -1.2278538868011288 -15.583401420324872 0 0 0 0 0 0 0 0 0 0 0 0 0 0 0 0 0 0 0 0 0 0 0 0 0 0 0 0 0 0 0 0 0 0 0 0 0 0 0 0 0 0 0 0 0 0 31.845545397003008 0 -0.019385047393467962 5.8655151574575175 14.663898616484138 0 0 0 0 0 0 0 0 0 34.93213737689703 11.383868970502158 34.17928471820529 9.921375692489702 -18.2336343191589 39.94666162472781 32.043747565365784 -1.058412627863394 -5.429707112486479 6.245805041541795 -2.533932429951924 16.901581697334347 0 0 0 0 0 0 0 0 0 0 0 0 0 0 0 0 0 0 0 0 0 0 0 0 0 0 0 0 0 0 0 0 0 0 0 0 0 0 0 0 0 0 0 0 0
-0.08303520089667402 -6.935891038270662 -4.228576731000349 -179.9980414702481 35.49827207574418 0.006133786932529173 70.22196363871953 -74.99230629040345 -25.078362656855504 -172.5632843096981 47.89974555546641 -134.21535789373905 -10.715728037621197 51.41810174406612 -33.74108042140728 0 0 0 -70.21742940563671 -74.98170655184356 25.075080171025196 172.5682330144555 47.903973654780366 134.22058596157322 10.730275074929406 51.403745580950186 33.75185137458638 0 0 0 -0.1789083380575088 -13.104881960492307 -0.4547624339430164 0.9191847967462973 3.026250711197795 0.5907874335803827 0 0 0 -36.135701495896 10.006885399006126 -34.1718346421788 -10.247433316717911 -18.38403309350373 -41.021993299510875 -33.04375702608224 -0.9670741318577276 5.239549058458612 -4.528524912961222 -1.1720329146308426 -15.27891304559826 0 0 0 0 0 0 0 0 0 0 0 0 0 0 0 0 0 0 0 0 0 0 0 0 0 0 0 0 0 0 0 0 0 0 0 0 0 0 0 0 0 0 0 0 0 0 31.50447292545509 0 -0.027411601883494507 5.799357401599602 14.497056938734316 0 0 0 0 0 0 0 0 0 34.55492624852813 10.932713168217605 33.304903409107254 9.993140779541518 -18.245823955046234 40.323534865556994 32.50766680865249 -1.021867014303168 -5.323272124202402 6.030845399235543 -2.4252428058470508 16.553015778776185 0 0 0 0 0 0 0 0 0 0 0 0 0 0 0 0 0 0 0 0 0 0 0 0 0 0 0 0 0 0 0 0 0 0 0 0 0 0 0 0 0 0 0 0 0
-0.08303520089667402 -6.927399106806538 -4.210357055858871 -179.9980547167422 35.331526915821215 0.006123969900732718 70.34520053923916 -75.05850917995723 -25.29954740633531 -172.5632843096981 47.89974555546641 -134.21535789373905 -10.756909030997926 51.634879697571634 -33.806334609430735 0 0 0 -70.34096248272841 -75.04835333215695 25.29632151651117 172.5682330144555 47.903973654780366 134.22058596157322 10.770698966558227 51.62110411554652 33.816491045719125 0 0 0 -0.17864689193657624 -12.671957952505982 -0.4561015374340484 0.9198944599504536 3.790481175969401 0.6030891021057003 0 0 0 -35.71230510723473 9.597932980117042 -33.26840185081427 -10.309355311458589 -18.392738716643304 -41.37326501093457 -33.48817131655125 -0.9342374258586946 5.135428458807533 -4.364179261747102 -1.1170846033087092 -14.974272798707332 0 0 0 0 0 0 0 0 0 0 0 0 0 0 0 0 0 0 0 0 0 0 0 0 0 0 0 0 0 0 0 0 0 0 0 0 0 0 0 0 0 0 0 0 0 0 31.163399159115155 0 -0.035243573630084915 5.733176513057555 14.33024390975838 0 0 0 0 0 0 0 0 0 34.18532750307889 10.475975479205616 32.43486718692455 10.064825540663989 -18.258462166093445 40.700420339884275 32.97164980281128 -0.9861842555406144 -5.216545976926412 5.815245381108832 -2.317862420616781 16.20406994198282 0 0 0 0 0 0 0 0 0 0 0 0 0 0 0 0 0 0 0 0 0 0 0 0 0 0 0 0 0 0 0 0 0 0 0 0 0 0 0 0 0 0 0 0 0
-0.08303520089667402 -6.91041551227056 -4.173917705575917 -179.998080989305 34.997999854328185 0.0061036445026376295 70.5961002656826 -75.19053993896809 -25.746331171921305 -172.5632843096981 47.89974555546641 -134.21535789373905 -10.84109592021742 52.06843268894075 -33.93859365125002 0 0 0 -70.59262361298812 -75.18128372666509 25.74337629286931 172.5682330144555 47.903973654780366 134.22058596157322 10.853349978563832 52.055817862103524 33.94749019113666 0 0 0 -0.1781560855164627 -11.805559729149792 -0.45876814949952677 0.9218152146403277 5.321959252059675 0.6278100462914676 0 0 0 -34.88399162709849 8.757640082250438 -31.467715788874262 -10.433094230872541 -18.41124547551741 -42.076160515103716 -34.377796800079715 -0.8709482939931672 4.926295518107814 -4.0344948352336765 -1.0097697018054856 -14.36428929442178 0 0 0 0 0 0 0 0 0 0 0 0 0 0 0 0 0 0 0 0 0 0 0 0 0 0 0 0 0 0 0 0 0 0 0 0 0 0 0 0 0 0 0 0 0 0 30.48026066651574 0 -0.0503295135658342 5.600697834212842 13.996577352963488 0 0 0 0 0 0 0 0 0 33.46666001794724 9.543146201821898 30.70178385917965 10.20802794198284 -18.285091904802435 41.454620827244284 33.90050651054847 -0.9173644424700855 -5.002079785536257 5.381873726241238 -2.106920302971329 15.504605773113147 0 0 0 0 0 0 0 0 0 0 0 0 0 0 0 0 0 0 0 0 0 0 0 0 0 0 0 0 0 0 0 0 0 0 0 0 0 0 0 0 0 0 0 0 0
-0.08303520089667402 -6.901923580806436 -4.15569803043444 -179.99809462558025 34.83123609135576 0.006093787448822626 70.72397810799286 -75.25637812247909 -25.972130477891966 -172.5632843096981 47.89974555546641 -134.21535789373905 -10.884113117377456 52.285180469088054 -34.0055956773003 0 0 0 -70.72086276604168 -75.24756432352031 25.969288598868378 172.5682330144555 47.903973654780366 134.22058596157322 10.895590619509575 52.27315145316845 34.013855077881644 0 0 0 -0.17792654248618267 -11.372138092344636 -0.4600967501842383 0.9230282655941602 6.088936932073534 0.6402340627064649 0 0 0 -34.479484434068475 8.326742302837408 -30.570961729239986 -10.494900816528906 -18.421043129940212 -42.42776120542781 -34.822949399242134 -0.8405056801223505 4.821306579902234 -3.8691757194132963 -0.9574124272557903 -14.058969732317642 0 0 0 0 0 0 0 0 0 0 0 0 0 0 0 0 0 0 0 0 0 0 0 0 0 0 0 0 0 0 0 0 0 0 0 0 0 0 0 0 0 0 0 0 0 0 30.13822226991369 0 -0.057583402109031415 5.53439989370106 13.829719736199904 0 0 0 0 0 0 0 0 0 33.1179104592581 9.067531700152577 29.83913170145272 10.279525037528668 -18.299080044621174 41.831910605293295 34.365319723589565 -0.8842402807408148 -4.8943695434932 5.164140990981136 -2.0033846500257293 15.1541381403643 0 0 0 0 0 0 0 0 0 0 0 0 0 0 0 0 0 0 0 0 0 0 0 0 0 0 0 0 0 0 0 0 0 0 0 0 0 0 0 0 0 0 0 0 0
